<svg width="49" height="42" viewBox="0 0 49 42" fill="none" xmlns="http://www.w3.org/2000/svg">
<path d="M46.0294 40.2363H46.4837L45.6132 38.9196C46.1455 38.9196 46.4276 38.5814 46.4316 38.1672C46.4316 38.1512 46.4316 38.1332 46.4296 38.1172C46.4296 37.5529 46.0895 37.2827 45.3911 37.2827H44.2625V40.2363H44.6867V38.9496H45.209L46.0294 40.2363ZM45.179 38.6154H44.6867V37.6169H45.311C45.6332 37.6169 46.0014 37.6689 46.0014 38.0912C46.0014 38.5754 45.6312 38.6154 45.179 38.6154Z" fill="#3E286E"/>
<path d="M34.601 35.2117H28.5837V25.7885C28.5837 23.5412 28.5437 20.6496 25.454 20.6496C22.3203 20.6496 21.84 23.097 21.84 25.6264V35.2117H15.8247V15.833H21.6019V18.4805H21.6819C22.8606 16.4673 25.0498 15.2647 27.3811 15.3507C33.4804 15.3507 34.603 19.3629 34.603 24.5798L34.601 35.2117ZM9.03497 13.1835C7.10591 13.1835 5.54305 11.6207 5.54305 9.69162C5.54305 7.76256 7.10591 6.1997 9.03497 6.1997C10.964 6.1997 12.5269 7.76256 12.5269 9.69162C12.5269 11.6207 10.964 13.1835 9.03497 13.1835ZM12.0426 35.2117H6.01931V15.833H12.0426V35.2117ZM37.6007 0.612626H2.99565C1.36075 0.594616 0.020011 1.90534 0 3.54024V38.2873C0.020011 39.9242 1.36075 41.235 2.99565 41.217H37.6007C39.2396 41.237 40.5863 39.9262 40.6083 38.2873V3.53823C40.5843 1.89933 39.2376 0.588613 37.6007 0.610625" fill="#3E286E"/>
<path d="M45.2309 35.9683C43.7021 35.9823 42.4734 37.235 42.4894 38.7638C42.5034 40.2926 43.7561 41.5213 45.2849 41.5053C46.8138 41.4913 48.0425 40.2386 48.0265 38.7098C48.0125 37.2009 46.7918 35.9823 45.2849 35.9683H45.2309ZM45.295 41.1871C43.9542 41.2091 42.7856 40.1426 42.7636 38.8018C42.7416 37.4611 43.8101 36.3565 45.1509 36.3345C46.4916 36.3125 47.5962 37.381 47.6182 38.7218C47.6182 38.7358 47.6182 38.7478 47.6182 38.7618C47.6462 40.0725 46.6057 41.1591 45.295 41.1871H45.2329H45.295Z" fill="#3E286E"/>
</svg>
